<svg width="23" height="22" viewBox="0 0 23 22" fill="none" xmlns="http://www.w3.org/2000/svg">
<path d="M11.75 20.4512C11.5254 20.4512 11.3008 20.4414 11.0762 20.4219L10.5488 21.418C10.3926 21.6914 10.1484 21.8281 9.83594 21.7695C9.54297 21.7109 9.33789 21.5059 9.29883 21.1934L9.14258 20.0898C8.70312 19.9629 8.2832 19.8066 7.88281 19.6211L7.04297 20.373C6.80859 20.5781 6.52539 20.6172 6.25195 20.4609C5.98828 20.3047 5.88086 20.041 5.93945 19.7383L6.17383 18.6445C5.8125 18.3809 5.46094 18.0977 5.13867 17.7754L4.10352 18.1953C3.81055 18.3125 3.53711 18.2539 3.33203 18.0098C3.13672 17.7754 3.11719 17.4824 3.2832 17.2188L3.87891 16.2812C3.625 15.9004 3.40039 15.5098 3.20508 15.1094L2.0918 15.1387C1.76953 15.1484 1.53516 15.002 1.42773 14.709C1.33008 14.416 1.39844 14.1328 1.65234 13.9473L2.53125 13.2637C2.42383 12.8242 2.3457 12.3848 2.29688 11.9258L1.23242 11.584C0.929688 11.4863 0.763672 11.252 0.763672 10.9492C0.763672 10.6367 0.929688 10.4023 1.23242 10.3145L2.29688 9.97266C2.3457 9.51367 2.42383 9.07422 2.53125 8.63477L1.65234 7.95117C1.39844 7.75586 1.32031 7.48242 1.42773 7.19922C1.53516 6.90625 1.76953 6.74023 2.0918 6.75L3.20508 6.79883C3.40039 6.38867 3.625 5.99805 3.87891 5.62695L3.2832 4.67969C3.11719 4.41602 3.12695 4.12305 3.33203 3.88867C3.53711 3.6543 3.81055 3.57617 4.10352 3.70312L5.13867 4.12305C5.46094 3.81055 5.80273 3.51758 6.17383 3.25391L5.93945 2.16016C5.88086 1.85742 5.97852 1.58398 6.25195 1.4375C6.52539 1.29102 6.81836 1.31055 7.04297 1.52539L7.86328 2.26758C8.2832 2.0918 8.69336 1.93555 9.13281 1.80859L9.29883 0.695312C9.34766 0.392578 9.5332 0.177734 9.8457 0.128906C10.1484 0.0800781 10.4023 0.207031 10.5488 0.480469L11.0762 1.47656C11.3008 1.45703 11.5254 1.44727 11.75 1.44727C11.9746 1.44727 12.1992 1.45703 12.4238 1.47656L12.9512 0.480469C13.0977 0.207031 13.3516 0.0703125 13.6543 0.128906C13.957 0.1875 14.1523 0.392578 14.2012 0.705078L14.3477 1.80859C14.7871 1.93555 15.2168 2.08203 15.6172 2.26758L16.457 1.52539C16.6816 1.32031 16.9746 1.27148 17.248 1.4375C17.5117 1.59375 17.6191 1.84766 17.5605 2.16016L17.3164 3.24414C17.6875 3.50781 18.0391 3.80078 18.3613 4.12305L19.3965 3.70312C19.6797 3.58594 19.9629 3.64453 20.168 3.88867C20.3535 4.12305 20.3828 4.41602 20.2168 4.67969L19.6211 5.61719C19.8652 5.98828 20.0996 6.37891 20.2949 6.78906L21.4082 6.75977C21.7207 6.75 21.9648 6.88672 22.0723 7.18945C22.1699 7.48242 22.1016 7.76562 21.8477 7.95117L20.959 8.63477C21.0762 9.06445 21.1543 9.51367 21.2031 9.97266L22.2676 10.3145C22.5605 10.4023 22.7363 10.6367 22.7363 10.9492C22.7363 11.252 22.5605 11.4863 22.2676 11.584L21.2031 11.9258C21.1543 12.3848 21.0762 12.8242 20.959 13.2637L21.8477 13.9473C22.1016 14.1426 22.1797 14.416 22.0723 14.6992C21.9648 14.9922 21.7207 15.1582 21.4082 15.1484L20.2949 15.0996C20.0996 15.5098 19.8652 15.9004 19.6211 16.2715L20.2168 17.2188C20.3828 17.4824 20.373 17.7754 20.168 18.0098C19.9629 18.2441 19.6895 18.3125 19.3867 18.1953L18.3613 17.7754C18.0391 18.0879 17.6973 18.3809 17.3164 18.6348L17.5508 19.7383C17.6191 20.041 17.5117 20.3047 17.2383 20.4609C16.9746 20.6074 16.6816 20.5879 16.457 20.373L15.627 19.6211C15.2168 19.8066 14.7969 19.9629 14.3574 20.0898L14.1914 21.1934C14.1523 21.5059 13.9668 21.7207 13.6543 21.7695C13.3516 21.8086 13.0977 21.6914 12.9512 21.418L12.4238 20.4219C12.1992 20.4414 11.9746 20.4512 11.75 20.4512ZM11.75 8.22461C12.9707 8.22461 14.0059 9.02539 14.3574 10.1387H19.3184C18.918 6.31055 15.6855 3.33203 11.75 3.33203C10.627 3.33203 9.5625 3.57617 8.5957 4.01562L11.0957 8.30273C11.3105 8.25391 11.5254 8.22461 11.75 8.22461ZM4.13281 10.9492C4.13281 13.4297 5.31445 15.627 7.15039 17.0234L9.73828 12.7852C9.29883 12.2969 9.02539 11.6523 9.02539 10.9492C9.02539 10.2461 9.29883 9.61133 9.72852 9.12305L7.21875 4.82617C5.34375 6.21289 4.13281 8.43945 4.13281 10.9492ZM11.75 12.0527C12.3652 12.0527 12.8535 11.5547 12.8535 10.9492C12.8535 10.334 12.3652 9.8457 11.75 9.8457C11.1445 9.8457 10.6465 10.334 10.6465 10.9492C10.6465 11.5547 11.1445 12.0527 11.75 12.0527ZM11.75 18.5664C15.6953 18.5664 18.9277 15.5684 19.3281 11.7305H14.3672C14.0254 12.8535 12.9805 13.6738 11.75 13.6738C11.5254 13.6738 11.3105 13.6445 11.1055 13.5957L8.51758 17.8438C9.50391 18.3027 10.5977 18.5664 11.75 18.5664Z" fill="#0099FA"/>
</svg>
