<svg width="25" height="24" viewBox="0 0 25 24" fill="none" xmlns="http://www.w3.org/2000/svg">
<path d="M21.5527 15.1328V2.92578H22.1582C23.6719 2.92578 24.4531 3.67773 24.4531 5.12305V12.9355C24.4531 14.3809 23.6719 15.1328 22.1582 15.1328H21.5527ZM13.0371 2.21289V2.92578H18.0078V2.21289C18.0078 1.74414 17.7441 1.49023 17.2363 1.49023H13.8086C13.3105 1.49023 13.0371 1.74414 13.0371 2.21289ZM23.4961 18.6094H5.85938C3.94531 18.6094 3.01758 17.7012 3.01758 15.8066V5.94336C3.01758 5.16211 2.62695 4.76172 1.86523 4.76172H1.00586C0.478516 4.76172 0.0488281 4.33203 0.0488281 3.80469C0.0488281 3.28711 0.478516 2.85742 1.00586 2.85742H2.09961C4.00391 2.85742 4.93164 3.76562 4.93164 5.66016V15.5234C4.93164 16.2949 5.33203 16.6953 6.09375 16.6953H23.4961C24.0234 16.6953 24.4629 17.1055 24.4629 17.6523C24.4629 18.1992 24.0234 18.6094 23.4961 18.6094ZM20.0488 23.8145C19.0234 23.8145 18.1641 22.9551 18.1641 21.9395C18.1641 20.8945 19.0234 20.0449 20.0488 20.0449C21.0742 20.0449 21.9336 20.8945 21.9336 21.9395C21.9336 22.9551 21.0742 23.8145 20.0488 23.8145ZM9.58008 23.8145C8.55469 23.8145 7.69531 22.9551 7.69531 21.9395C7.69531 20.8945 8.55469 20.0449 9.58008 20.0449C10.6055 20.0449 11.4648 20.8945 11.4648 21.9395C11.4648 22.9551 10.6055 23.8145 9.58008 23.8145ZM10.8496 15.1328V2.92578H11.5137V2.28125C11.5137 0.826172 12.2852 0.0742188 13.8086 0.0742188H17.2461C18.7305 0.0742188 19.541 0.855469 19.541 2.28125V2.92578H20.2051V15.1328H10.8496ZM8.89648 2.92578H9.49219V15.1328H8.89648C7.37305 15.1328 6.5918 14.3809 6.5918 12.9355V5.12305C6.5918 3.67773 7.37305 2.92578 8.89648 2.92578Z" fill="#0099FA"/>
</svg>
